<mxfile host="app.diagrams.net" modified="2023-11-05T21:54:41.322Z" agent="Mozilla/5.0 (Windows NT 10.0; Win64; x64) AppleWebKit/537.36 (KHTML, like Gecko) Chrome/119.0.0.0 Safari/537.36" etag="PROSXcdMxTIrOdDnupgc" version="22.0.8" type="device">
  <diagram name="Page-1" id="e7e014a7-5840-1c2e-5031-d8a46d1fe8dd">
    <mxGraphModel dx="2001" dy="823" grid="1" gridSize="10" guides="1" tooltips="1" connect="1" arrows="1" fold="1" page="1" pageScale="1" pageWidth="1169" pageHeight="826" background="none" math="0" shadow="0">
      <root>
        <mxCell id="0" />
        <mxCell id="1" parent="0" />
        <mxCell id="M8dPN3yoQwp40eLqV-Fw-42" value="" style="ellipse;html=1;shape=startState;fillColor=#000000;strokeColor=#ff0000;" vertex="1" parent="1">
          <mxGeometry x="110" y="100" width="30" height="30" as="geometry" />
        </mxCell>
        <mxCell id="M8dPN3yoQwp40eLqV-Fw-43" value="" style="edgeStyle=orthogonalEdgeStyle;html=1;verticalAlign=bottom;endArrow=open;endSize=8;strokeColor=#330000;rounded=0;" edge="1" source="M8dPN3yoQwp40eLqV-Fw-42" parent="1">
          <mxGeometry relative="1" as="geometry">
            <mxPoint x="125" y="190" as="targetPoint" />
          </mxGeometry>
        </mxCell>
        <mxCell id="M8dPN3yoQwp40eLqV-Fw-54" value="" style="rounded=1;orthogonalLoop=1;jettySize=auto;html=1;endArrow=open;endFill=0;" edge="1" parent="1" source="M8dPN3yoQwp40eLqV-Fw-45" target="M8dPN3yoQwp40eLqV-Fw-51">
          <mxGeometry relative="1" as="geometry" />
        </mxCell>
        <mxCell id="M8dPN3yoQwp40eLqV-Fw-45" value="Log In to app" style="rounded=1;whiteSpace=wrap;html=1;arcSize=40;fontColor=#000000;fillColor=#ffffc0;strokeColor=#ff0000;" vertex="1" parent="1">
          <mxGeometry x="65" y="190" width="120" height="40" as="geometry" />
        </mxCell>
        <mxCell id="M8dPN3yoQwp40eLqV-Fw-50" value="Social Media App: Activity Diagram" style="shape=umlFrame;whiteSpace=wrap;html=1;pointerEvents=0;recursiveResize=0;container=1;collapsible=0;width=250;height=40;" vertex="1" parent="1">
          <mxGeometry x="10" y="10" width="1150" height="1040" as="geometry" />
        </mxCell>
        <mxCell id="M8dPN3yoQwp40eLqV-Fw-44" value="User" style="text;html=1;strokeColor=none;fillColor=none;align=center;verticalAlign=middle;whiteSpace=wrap;rounded=0;fontStyle=1;fontSize=16;" vertex="1" parent="M8dPN3yoQwp40eLqV-Fw-50">
          <mxGeometry x="85" y="60" width="60" height="30" as="geometry" />
        </mxCell>
        <mxCell id="M8dPN3yoQwp40eLqV-Fw-51" value="Correct" style="rhombus;whiteSpace=wrap;html=1;fontColor=#000000;fillColor=#ffffc0;strokeColor=#ff0000;" vertex="1" parent="M8dPN3yoQwp40eLqV-Fw-50">
          <mxGeometry x="70" y="280" width="80" height="40" as="geometry" />
        </mxCell>
        <mxCell id="M8dPN3yoQwp40eLqV-Fw-52" value="no" style="edgeStyle=orthogonalEdgeStyle;html=1;align=left;verticalAlign=bottom;endArrow=open;endSize=8;strokeColor=#000000;rounded=0;" edge="1" source="M8dPN3yoQwp40eLqV-Fw-51" parent="M8dPN3yoQwp40eLqV-Fw-50">
          <mxGeometry x="-1" relative="1" as="geometry">
            <mxPoint x="250" y="300" as="targetPoint" />
          </mxGeometry>
        </mxCell>
        <mxCell id="M8dPN3yoQwp40eLqV-Fw-53" value="yes" style="html=1;align=left;verticalAlign=top;endArrow=open;endSize=8;strokeColor=#000000;rounded=1;startArrow=none;startFill=0;endFill=0;" edge="1" source="M8dPN3yoQwp40eLqV-Fw-51" parent="M8dPN3yoQwp40eLqV-Fw-50">
          <mxGeometry x="-1" relative="1" as="geometry">
            <mxPoint x="110" y="380" as="targetPoint" />
          </mxGeometry>
        </mxCell>
        <mxCell id="M8dPN3yoQwp40eLqV-Fw-55" value="Display Error" style="rounded=1;whiteSpace=wrap;html=1;arcSize=40;fontColor=#000000;fillColor=#ffffc0;strokeColor=#ff0000;" vertex="1" parent="M8dPN3yoQwp40eLqV-Fw-50">
          <mxGeometry x="250" y="280" width="120" height="40" as="geometry" />
        </mxCell>
        <mxCell id="M8dPN3yoQwp40eLqV-Fw-61" value="Update&amp;nbsp;&lt;br&gt;Account?" style="rhombus;whiteSpace=wrap;html=1;fontColor=#000000;fillColor=#ffffc0;strokeColor=#ff0000;" vertex="1" parent="M8dPN3yoQwp40eLqV-Fw-50">
          <mxGeometry x="60" y="378" width="100" height="50" as="geometry" />
        </mxCell>
        <mxCell id="M8dPN3yoQwp40eLqV-Fw-62" value="no" style="html=1;align=left;verticalAlign=bottom;endArrow=open;endSize=8;strokeColor=#030303;rounded=1;entryX=0;entryY=0.5;entryDx=0;entryDy=0;" edge="1" parent="M8dPN3yoQwp40eLqV-Fw-50" target="M8dPN3yoQwp40eLqV-Fw-69">
          <mxGeometry x="-1" y="-79" relative="1" as="geometry">
            <mxPoint x="250" y="400" as="targetPoint" />
            <mxPoint x="160" y="403" as="sourcePoint" />
            <mxPoint x="-70" y="-42" as="offset" />
          </mxGeometry>
        </mxCell>
        <mxCell id="M8dPN3yoQwp40eLqV-Fw-63" value="yes" style="edgeStyle=orthogonalEdgeStyle;html=1;align=left;verticalAlign=top;endArrow=open;endSize=8;strokeColor=#030303;rounded=1;" edge="1" source="M8dPN3yoQwp40eLqV-Fw-61" parent="M8dPN3yoQwp40eLqV-Fw-50">
          <mxGeometry x="-1" y="85" relative="1" as="geometry">
            <mxPoint x="110" y="480" as="targetPoint" />
            <mxPoint x="-15" y="-48" as="offset" />
          </mxGeometry>
        </mxCell>
        <mxCell id="M8dPN3yoQwp40eLqV-Fw-66" value="Nickname&lt;br&gt;Email&lt;br&gt;Birthday" style="shape=note2;boundedLbl=1;whiteSpace=wrap;html=1;size=20;verticalAlign=top;align=center;" vertex="1" parent="M8dPN3yoQwp40eLqV-Fw-50">
          <mxGeometry x="400" y="350" width="80" height="80" as="geometry" />
        </mxCell>
        <mxCell id="M8dPN3yoQwp40eLqV-Fw-83" style="rounded=0;orthogonalLoop=1;jettySize=auto;html=1;exitX=0.5;exitY=1;exitDx=0;exitDy=0;entryX=0.5;entryY=0;entryDx=0;entryDy=0;endArrow=open;endFill=0;" edge="1" parent="M8dPN3yoQwp40eLqV-Fw-50" source="M8dPN3yoQwp40eLqV-Fw-69" target="M8dPN3yoQwp40eLqV-Fw-78">
          <mxGeometry relative="1" as="geometry" />
        </mxCell>
        <mxCell id="M8dPN3yoQwp40eLqV-Fw-69" value="Update&lt;br&gt;Account Details" style="rounded=1;whiteSpace=wrap;html=1;arcSize=40;fontColor=#000000;fillColor=#ffffc0;strokeColor=#ff0000;" vertex="1" parent="M8dPN3yoQwp40eLqV-Fw-50">
          <mxGeometry x="260" y="380" width="120" height="40" as="geometry" />
        </mxCell>
        <mxCell id="M8dPN3yoQwp40eLqV-Fw-78" value="ListPosts?" style="rhombus;whiteSpace=wrap;html=1;fontColor=#000000;fillColor=#ffffc0;strokeColor=#ff0000;" vertex="1" parent="M8dPN3yoQwp40eLqV-Fw-50">
          <mxGeometry x="65" y="480" width="90" height="60" as="geometry" />
        </mxCell>
        <mxCell id="M8dPN3yoQwp40eLqV-Fw-79" value="no" style="edgeStyle=orthogonalEdgeStyle;html=1;align=left;verticalAlign=bottom;endArrow=open;endSize=8;strokeColor=#330000;rounded=0;entryX=0;entryY=0.5;entryDx=0;entryDy=0;" edge="1" source="M8dPN3yoQwp40eLqV-Fw-78" parent="M8dPN3yoQwp40eLqV-Fw-50" target="M8dPN3yoQwp40eLqV-Fw-81">
          <mxGeometry x="-1" y="-85" relative="1" as="geometry">
            <mxPoint x="250" y="500" as="targetPoint" />
            <mxPoint x="-75" y="-45" as="offset" />
          </mxGeometry>
        </mxCell>
        <mxCell id="M8dPN3yoQwp40eLqV-Fw-80" value="yes" style="edgeStyle=orthogonalEdgeStyle;html=1;align=left;verticalAlign=top;endArrow=open;endSize=8;strokeColor=#330000;rounded=0;" edge="1" source="M8dPN3yoQwp40eLqV-Fw-78" parent="M8dPN3yoQwp40eLqV-Fw-50">
          <mxGeometry x="-1" y="58" relative="1" as="geometry">
            <mxPoint x="110" y="580" as="targetPoint" />
            <mxPoint x="-8" y="-30" as="offset" />
          </mxGeometry>
        </mxCell>
        <mxCell id="M8dPN3yoQwp40eLqV-Fw-101" style="edgeStyle=orthogonalEdgeStyle;rounded=0;orthogonalLoop=1;jettySize=auto;html=1;exitX=1;exitY=0.5;exitDx=0;exitDy=0;entryX=0;entryY=0.5;entryDx=0;entryDy=0;endArrow=open;endFill=0;" edge="1" parent="M8dPN3yoQwp40eLqV-Fw-50" source="M8dPN3yoQwp40eLqV-Fw-81" target="M8dPN3yoQwp40eLqV-Fw-95">
          <mxGeometry relative="1" as="geometry" />
        </mxCell>
        <mxCell id="M8dPN3yoQwp40eLqV-Fw-81" value="DisplayPost" style="rounded=1;whiteSpace=wrap;html=1;arcSize=40;fontColor=#000000;fillColor=#ffffc0;strokeColor=#ff0000;" vertex="1" parent="M8dPN3yoQwp40eLqV-Fw-50">
          <mxGeometry x="250" y="490" width="120" height="40" as="geometry" />
        </mxCell>
        <mxCell id="M8dPN3yoQwp40eLqV-Fw-84" value="createPost" style="rounded=1;whiteSpace=wrap;html=1;arcSize=40;fontColor=#000000;fillColor=#ffffc0;strokeColor=#ff0000;" vertex="1" parent="M8dPN3yoQwp40eLqV-Fw-50">
          <mxGeometry x="200" y="580" width="120" height="40" as="geometry" />
        </mxCell>
        <mxCell id="M8dPN3yoQwp40eLqV-Fw-103" value="" style="edgeStyle=orthogonalEdgeStyle;rounded=0;orthogonalLoop=1;jettySize=auto;html=1;endArrow=open;endFill=0;" edge="1" parent="M8dPN3yoQwp40eLqV-Fw-50" source="M8dPN3yoQwp40eLqV-Fw-86" target="M8dPN3yoQwp40eLqV-Fw-102">
          <mxGeometry relative="1" as="geometry" />
        </mxCell>
        <mxCell id="M8dPN3yoQwp40eLqV-Fw-86" value="addComment" style="rounded=1;whiteSpace=wrap;html=1;arcSize=40;fontColor=#000000;fillColor=#ffffc0;strokeColor=#ff0000;" vertex="1" parent="M8dPN3yoQwp40eLqV-Fw-50">
          <mxGeometry x="610" y="490" width="110" height="40" as="geometry" />
        </mxCell>
        <mxCell id="M8dPN3yoQwp40eLqV-Fw-91" value="new Post?" style="rhombus;whiteSpace=wrap;html=1;fontColor=#000000;fillColor=#ffffc0;strokeColor=#ff0000;" vertex="1" parent="M8dPN3yoQwp40eLqV-Fw-50">
          <mxGeometry x="70" y="580" width="80" height="40" as="geometry" />
        </mxCell>
        <mxCell id="M8dPN3yoQwp40eLqV-Fw-92" value="no" style="edgeStyle=orthogonalEdgeStyle;html=1;align=left;verticalAlign=bottom;endArrow=open;endSize=8;strokeColor=#330000;rounded=0;" edge="1" source="M8dPN3yoQwp40eLqV-Fw-91" parent="M8dPN3yoQwp40eLqV-Fw-50">
          <mxGeometry x="-1" y="-81" relative="1" as="geometry">
            <mxPoint x="200" y="600" as="targetPoint" />
            <mxPoint x="-70" y="-41" as="offset" />
          </mxGeometry>
        </mxCell>
        <mxCell id="M8dPN3yoQwp40eLqV-Fw-93" value="yes" style="edgeStyle=orthogonalEdgeStyle;html=1;align=left;verticalAlign=top;endArrow=open;endSize=8;strokeColor=#330000;rounded=0;" edge="1" source="M8dPN3yoQwp40eLqV-Fw-91" parent="M8dPN3yoQwp40eLqV-Fw-50">
          <mxGeometry x="1" y="-354" relative="1" as="geometry">
            <mxPoint x="110" y="680" as="targetPoint" />
            <mxPoint x="44" y="175" as="offset" />
          </mxGeometry>
        </mxCell>
        <mxCell id="M8dPN3yoQwp40eLqV-Fw-94" value="yes" style="text;html=1;align=center;verticalAlign=middle;resizable=0;points=[];autosize=1;strokeColor=none;fillColor=none;" vertex="1" parent="M8dPN3yoQwp40eLqV-Fw-50">
          <mxGeometry x="145" y="575" width="40" height="30" as="geometry" />
        </mxCell>
        <mxCell id="M8dPN3yoQwp40eLqV-Fw-111" style="edgeStyle=orthogonalEdgeStyle;rounded=0;orthogonalLoop=1;jettySize=auto;html=1;exitX=0.5;exitY=0;exitDx=0;exitDy=0;entryX=0.5;entryY=1;entryDx=0;entryDy=0;endArrow=open;endFill=0;fillColor=#e1d5e7;strokeColor=#050505;strokeWidth=1;" edge="1" parent="M8dPN3yoQwp40eLqV-Fw-50" source="M8dPN3yoQwp40eLqV-Fw-95" target="M8dPN3yoQwp40eLqV-Fw-109">
          <mxGeometry relative="1" as="geometry">
            <Array as="points">
              <mxPoint x="490" y="490" />
              <mxPoint x="490" y="445" />
              <mxPoint x="580" y="445" />
            </Array>
          </mxGeometry>
        </mxCell>
        <mxCell id="M8dPN3yoQwp40eLqV-Fw-95" value="Interact?" style="rhombus;whiteSpace=wrap;html=1;fontColor=#000000;fillColor=#ffffc0;strokeColor=#ff0000;" vertex="1" parent="M8dPN3yoQwp40eLqV-Fw-50">
          <mxGeometry x="430" y="490" width="80" height="40" as="geometry" />
        </mxCell>
        <mxCell id="M8dPN3yoQwp40eLqV-Fw-96" value="Comment" style="edgeStyle=orthogonalEdgeStyle;html=1;align=left;verticalAlign=bottom;endArrow=open;endSize=8;strokeColor=#330000;rounded=0;" edge="1" source="M8dPN3yoQwp40eLqV-Fw-95" parent="M8dPN3yoQwp40eLqV-Fw-50">
          <mxGeometry x="-1" relative="1" as="geometry">
            <mxPoint x="610" y="510" as="targetPoint" />
            <Array as="points">
              <mxPoint x="520" y="510" />
              <mxPoint x="520" y="510" />
            </Array>
            <mxPoint as="offset" />
          </mxGeometry>
        </mxCell>
        <mxCell id="M8dPN3yoQwp40eLqV-Fw-97" value="LIike Post" style="edgeStyle=orthogonalEdgeStyle;html=1;align=left;verticalAlign=top;endArrow=open;endSize=8;strokeColor=#330000;rounded=0;entryX=0;entryY=0.5;entryDx=0;entryDy=0;" edge="1" source="M8dPN3yoQwp40eLqV-Fw-95" parent="M8dPN3yoQwp40eLqV-Fw-50" target="M8dPN3yoQwp40eLqV-Fw-121">
          <mxGeometry x="-1" relative="1" as="geometry">
            <mxPoint x="470" y="590" as="targetPoint" />
          </mxGeometry>
        </mxCell>
        <mxCell id="M8dPN3yoQwp40eLqV-Fw-105" value="" style="edgeStyle=orthogonalEdgeStyle;rounded=0;orthogonalLoop=1;jettySize=auto;html=1;endArrow=open;endFill=0;" edge="1" parent="M8dPN3yoQwp40eLqV-Fw-50" source="M8dPN3yoQwp40eLqV-Fw-102" target="M8dPN3yoQwp40eLqV-Fw-104">
          <mxGeometry relative="1" as="geometry" />
        </mxCell>
        <mxCell id="M8dPN3yoQwp40eLqV-Fw-102" value="displayComment()" style="rounded=1;whiteSpace=wrap;html=1;arcSize=40;fontColor=#000000;fillColor=#ffffc0;strokeColor=#ff0000;" vertex="1" parent="M8dPN3yoQwp40eLqV-Fw-50">
          <mxGeometry x="780" y="490" width="120" height="40" as="geometry" />
        </mxCell>
        <mxCell id="M8dPN3yoQwp40eLqV-Fw-104" value="countComments" style="rounded=1;whiteSpace=wrap;html=1;arcSize=40;fontColor=#000000;fillColor=#ffffc0;strokeColor=#ff0000;" vertex="1" parent="M8dPN3yoQwp40eLqV-Fw-50">
          <mxGeometry x="940" y="490" width="120" height="40" as="geometry" />
        </mxCell>
        <mxCell id="M8dPN3yoQwp40eLqV-Fw-109" value="ForwardPost" style="rounded=1;whiteSpace=wrap;html=1;arcSize=40;fontColor=#000000;fillColor=#ffffc0;strokeColor=#ff0000;" vertex="1" parent="M8dPN3yoQwp40eLqV-Fw-50">
          <mxGeometry x="520" y="360" width="120" height="40" as="geometry" />
        </mxCell>
        <mxCell id="M8dPN3yoQwp40eLqV-Fw-116" value="Person" style="rounded=1;whiteSpace=wrap;html=1;arcSize=40;fontColor=#000000;fillColor=#ffffc0;strokeColor=#ff0000;" vertex="1" parent="M8dPN3yoQwp40eLqV-Fw-50">
          <mxGeometry x="720" y="360" width="120" height="40" as="geometry" />
        </mxCell>
        <mxCell id="M8dPN3yoQwp40eLqV-Fw-118" value="" style="endArrow=open;html=1;rounded=0;exitX=1;exitY=0.5;exitDx=0;exitDy=0;entryX=0;entryY=0.5;entryDx=0;entryDy=0;endFill=0;" edge="1" parent="M8dPN3yoQwp40eLqV-Fw-50" source="M8dPN3yoQwp40eLqV-Fw-109" target="M8dPN3yoQwp40eLqV-Fw-116">
          <mxGeometry relative="1" as="geometry">
            <mxPoint x="480" y="410" as="sourcePoint" />
            <mxPoint x="580" y="410" as="targetPoint" />
            <Array as="points" />
          </mxGeometry>
        </mxCell>
        <mxCell id="M8dPN3yoQwp40eLqV-Fw-119" value="" style="shape=message;html=1;outlineConnect=0;" vertex="1" parent="M8dPN3yoQwp40eLqV-Fw-118">
          <mxGeometry width="20" height="14" relative="1" as="geometry">
            <mxPoint x="-10" y="-7" as="offset" />
          </mxGeometry>
        </mxCell>
        <mxCell id="M8dPN3yoQwp40eLqV-Fw-124" value="" style="edgeStyle=orthogonalEdgeStyle;rounded=0;orthogonalLoop=1;jettySize=auto;html=1;" edge="1" parent="M8dPN3yoQwp40eLqV-Fw-50" source="M8dPN3yoQwp40eLqV-Fw-121" target="M8dPN3yoQwp40eLqV-Fw-123">
          <mxGeometry relative="1" as="geometry" />
        </mxCell>
        <mxCell id="M8dPN3yoQwp40eLqV-Fw-121" value="newLike" style="rounded=1;whiteSpace=wrap;html=1;arcSize=40;fontColor=#000000;fillColor=#ffffc0;strokeColor=#ff0000;" vertex="1" parent="M8dPN3yoQwp40eLqV-Fw-50">
          <mxGeometry x="500" y="570" width="120" height="40" as="geometry" />
        </mxCell>
        <mxCell id="M8dPN3yoQwp40eLqV-Fw-126" style="edgeStyle=orthogonalEdgeStyle;rounded=1;orthogonalLoop=1;jettySize=auto;html=1;exitX=1;exitY=0.5;exitDx=0;exitDy=0;entryX=0.75;entryY=1;entryDx=0;entryDy=0;endArrow=openThin;endFill=0;" edge="1" parent="M8dPN3yoQwp40eLqV-Fw-50" source="M8dPN3yoQwp40eLqV-Fw-123" target="M8dPN3yoQwp40eLqV-Fw-81">
          <mxGeometry relative="1" as="geometry">
            <Array as="points">
              <mxPoint x="800" y="590" />
              <mxPoint x="800" y="630" />
              <mxPoint x="340" y="630" />
            </Array>
          </mxGeometry>
        </mxCell>
        <mxCell id="M8dPN3yoQwp40eLqV-Fw-123" value="countLikes" style="rounded=1;whiteSpace=wrap;html=1;arcSize=40;fontColor=#000000;fillColor=#ffffc0;strokeColor=#ff0000;" vertex="1" parent="M8dPN3yoQwp40eLqV-Fw-50">
          <mxGeometry x="660" y="570" width="120" height="40" as="geometry" />
        </mxCell>
        <mxCell id="M8dPN3yoQwp40eLqV-Fw-140" style="edgeStyle=orthogonalEdgeStyle;rounded=0;orthogonalLoop=1;jettySize=auto;html=1;exitX=1;exitY=0.5;exitDx=0;exitDy=0;entryX=0;entryY=0.5;entryDx=0;entryDy=0;endArrow=open;endFill=0;" edge="1" parent="M8dPN3yoQwp40eLqV-Fw-50" source="M8dPN3yoQwp40eLqV-Fw-127" target="M8dPN3yoQwp40eLqV-Fw-133">
          <mxGeometry relative="1" as="geometry" />
        </mxCell>
        <mxCell id="M8dPN3yoQwp40eLqV-Fw-146" style="edgeStyle=orthogonalEdgeStyle;rounded=0;orthogonalLoop=1;jettySize=auto;html=1;exitX=0.5;exitY=1;exitDx=0;exitDy=0;entryX=0.5;entryY=0;entryDx=0;entryDy=0;endArrow=open;endFill=0;" edge="1" parent="M8dPN3yoQwp40eLqV-Fw-50" source="M8dPN3yoQwp40eLqV-Fw-127" target="M8dPN3yoQwp40eLqV-Fw-143">
          <mxGeometry relative="1" as="geometry" />
        </mxCell>
        <mxCell id="M8dPN3yoQwp40eLqV-Fw-127" value="newFollower?" style="rhombus;whiteSpace=wrap;html=1;fontColor=#000000;fillColor=#ffffc0;strokeColor=#ff0000;" vertex="1" parent="M8dPN3yoQwp40eLqV-Fw-50">
          <mxGeometry x="70" y="680" width="80" height="50" as="geometry" />
        </mxCell>
        <mxCell id="M8dPN3yoQwp40eLqV-Fw-154" value="" style="edgeStyle=orthogonalEdgeStyle;rounded=1;orthogonalLoop=1;jettySize=auto;html=1;endArrow=open;endFill=0;" edge="1" parent="M8dPN3yoQwp40eLqV-Fw-50" source="M8dPN3yoQwp40eLqV-Fw-133">
          <mxGeometry relative="1" as="geometry">
            <mxPoint x="420" y="705" as="targetPoint" />
          </mxGeometry>
        </mxCell>
        <mxCell id="M8dPN3yoQwp40eLqV-Fw-133" value="displayFollowers" style="rounded=1;whiteSpace=wrap;html=1;arcSize=40;fontColor=#000000;fillColor=#ffffc0;strokeColor=#ff0000;" vertex="1" parent="M8dPN3yoQwp40eLqV-Fw-50">
          <mxGeometry x="220" y="685" width="120" height="40" as="geometry" />
        </mxCell>
        <mxCell id="M8dPN3yoQwp40eLqV-Fw-138" value="no" style="text;html=1;align=center;verticalAlign=middle;resizable=0;points=[];autosize=1;strokeColor=none;fillColor=none;" vertex="1" parent="M8dPN3yoQwp40eLqV-Fw-50">
          <mxGeometry x="60" y="718" width="40" height="30" as="geometry" />
        </mxCell>
        <mxCell id="M8dPN3yoQwp40eLqV-Fw-143" value="displayFollowers" style="rhombus;whiteSpace=wrap;html=1;fontColor=#000000;fillColor=#ffffc0;strokeColor=#ff0000;" vertex="1" parent="M8dPN3yoQwp40eLqV-Fw-50">
          <mxGeometry x="65" y="780" width="105" height="50" as="geometry" />
        </mxCell>
        <mxCell id="M8dPN3yoQwp40eLqV-Fw-144" value="no" style="edgeStyle=orthogonalEdgeStyle;html=1;align=left;verticalAlign=bottom;endArrow=open;endSize=8;strokeColor=#330000;rounded=1;endFill=0;" edge="1" source="M8dPN3yoQwp40eLqV-Fw-143" parent="M8dPN3yoQwp40eLqV-Fw-50">
          <mxGeometry x="-0.8086" y="-25" relative="1" as="geometry">
            <mxPoint x="260" y="790" as="targetPoint" />
            <Array as="points">
              <mxPoint x="215" y="805" />
              <mxPoint x="215" y="791" />
            </Array>
            <mxPoint as="offset" />
          </mxGeometry>
        </mxCell>
        <mxCell id="M8dPN3yoQwp40eLqV-Fw-145" value="yes" style="edgeStyle=orthogonalEdgeStyle;html=1;align=left;verticalAlign=top;endArrow=open;endSize=8;strokeColor=#ff0000;rounded=1;entryX=0.5;entryY=0;entryDx=0;entryDy=0;endFill=0;" edge="1" source="M8dPN3yoQwp40eLqV-Fw-143" parent="M8dPN3yoQwp40eLqV-Fw-50" target="M8dPN3yoQwp40eLqV-Fw-155">
          <mxGeometry x="-1" relative="1" as="geometry">
            <mxPoint x="110" y="880" as="targetPoint" />
            <Array as="points">
              <mxPoint x="118" y="855" />
              <mxPoint x="111" y="855" />
            </Array>
          </mxGeometry>
        </mxCell>
        <mxCell id="M8dPN3yoQwp40eLqV-Fw-148" value="" style="html=1;points=[];perimeter=orthogonalPerimeter;fillColor=strokeColor;" vertex="1" parent="M8dPN3yoQwp40eLqV-Fw-50">
          <mxGeometry x="1100" y="480" width="5" height="80" as="geometry" />
        </mxCell>
        <mxCell id="M8dPN3yoQwp40eLqV-Fw-149" style="edgeStyle=orthogonalEdgeStyle;rounded=1;orthogonalLoop=1;jettySize=auto;html=1;exitX=0.75;exitY=1;exitDx=0;exitDy=0;endArrow=open;endFill=0;" edge="1" parent="M8dPN3yoQwp40eLqV-Fw-50" source="M8dPN3yoQwp40eLqV-Fw-84">
          <mxGeometry relative="1" as="geometry">
            <mxPoint x="1110" y="530" as="targetPoint" />
            <Array as="points">
              <mxPoint x="290" y="640" />
              <mxPoint x="1130" y="640" />
              <mxPoint x="1130" y="530" />
            </Array>
          </mxGeometry>
        </mxCell>
        <mxCell id="M8dPN3yoQwp40eLqV-Fw-151" style="edgeStyle=orthogonalEdgeStyle;rounded=1;orthogonalLoop=1;jettySize=auto;html=1;exitX=0.75;exitY=1;exitDx=0;exitDy=0;entryX=1.2;entryY=0.863;entryDx=0;entryDy=0;entryPerimeter=0;endArrow=open;endFill=0;" edge="1" parent="M8dPN3yoQwp40eLqV-Fw-50" source="M8dPN3yoQwp40eLqV-Fw-104" target="M8dPN3yoQwp40eLqV-Fw-148">
          <mxGeometry relative="1" as="geometry">
            <Array as="points">
              <mxPoint x="1030" y="580" />
              <mxPoint x="1125" y="580" />
              <mxPoint x="1125" y="549" />
            </Array>
          </mxGeometry>
        </mxCell>
        <mxCell id="M8dPN3yoQwp40eLqV-Fw-152" value="" style="endArrow=open;html=1;rounded=1;exitX=0.4;exitY=0.038;exitDx=0;exitDy=0;exitPerimeter=0;entryX=1;entryY=0;entryDx=0;entryDy=0;jumpStyle=arc;endFill=0;" edge="1" parent="M8dPN3yoQwp40eLqV-Fw-50" source="M8dPN3yoQwp40eLqV-Fw-148" target="M8dPN3yoQwp40eLqV-Fw-78">
          <mxGeometry width="50" height="50" relative="1" as="geometry">
            <mxPoint x="500" y="640" as="sourcePoint" />
            <mxPoint x="550" y="590" as="targetPoint" />
            <Array as="points">
              <mxPoint x="600" y="470" />
            </Array>
          </mxGeometry>
        </mxCell>
        <mxCell id="M8dPN3yoQwp40eLqV-Fw-155" value="unfollow" style="rhombus;whiteSpace=wrap;html=1;fontColor=#000000;fillColor=#ffffc0;strokeColor=#ff0000;" vertex="1" parent="M8dPN3yoQwp40eLqV-Fw-50">
          <mxGeometry x="70" y="890" width="80" height="40" as="geometry" />
        </mxCell>
        <mxCell id="M8dPN3yoQwp40eLqV-Fw-156" value="no" style="edgeStyle=orthogonalEdgeStyle;html=1;align=left;verticalAlign=bottom;endArrow=open;endSize=8;strokeColor=#330000;rounded=0;entryX=0;entryY=0.5;entryDx=0;entryDy=0;" edge="1" source="M8dPN3yoQwp40eLqV-Fw-155" parent="M8dPN3yoQwp40eLqV-Fw-50" target="M8dPN3yoQwp40eLqV-Fw-170">
          <mxGeometry x="-1" relative="1" as="geometry">
            <mxPoint x="260" y="910" as="targetPoint" />
            <Array as="points" />
          </mxGeometry>
        </mxCell>
        <mxCell id="M8dPN3yoQwp40eLqV-Fw-157" value="yes" style="edgeStyle=orthogonalEdgeStyle;html=1;align=left;verticalAlign=top;endArrow=open;endSize=8;strokeColor=#0d0d0d;rounded=1;entryX=0;entryY=0.5;entryDx=0;entryDy=0;" edge="1" source="M8dPN3yoQwp40eLqV-Fw-155" parent="M8dPN3yoQwp40eLqV-Fw-50" target="M8dPN3yoQwp40eLqV-Fw-143">
          <mxGeometry x="-1" relative="1" as="geometry">
            <mxPoint x="110" y="980" as="targetPoint" />
            <Array as="points">
              <mxPoint x="110" y="970" />
              <mxPoint x="55" y="970" />
              <mxPoint x="55" y="830" />
              <mxPoint x="65" y="830" />
            </Array>
          </mxGeometry>
        </mxCell>
        <mxCell id="M8dPN3yoQwp40eLqV-Fw-166" style="edgeStyle=orthogonalEdgeStyle;rounded=1;orthogonalLoop=1;jettySize=auto;html=1;exitX=0.5;exitY=1;exitDx=0;exitDy=0;entryX=1;entryY=0;entryDx=0;entryDy=0;endArrow=open;endFill=0;" edge="1" parent="M8dPN3yoQwp40eLqV-Fw-50" source="M8dPN3yoQwp40eLqV-Fw-160" target="M8dPN3yoQwp40eLqV-Fw-143">
          <mxGeometry relative="1" as="geometry" />
        </mxCell>
        <mxCell id="M8dPN3yoQwp40eLqV-Fw-160" value="listPosts" style="rounded=1;whiteSpace=wrap;html=1;arcSize=40;fontColor=#000000;fillColor=#ffffc0;strokeColor=#ff0000;" vertex="1" parent="M8dPN3yoQwp40eLqV-Fw-50">
          <mxGeometry x="420" y="685" width="120" height="40" as="geometry" />
        </mxCell>
        <mxCell id="M8dPN3yoQwp40eLqV-Fw-168" value="" style="rounded=0;orthogonalLoop=1;jettySize=auto;html=1;entryX=0.5;entryY=0;entryDx=0;entryDy=0;endArrow=open;endFill=0;" edge="1" parent="M8dPN3yoQwp40eLqV-Fw-50" source="M8dPN3yoQwp40eLqV-Fw-162" target="M8dPN3yoQwp40eLqV-Fw-170">
          <mxGeometry relative="1" as="geometry">
            <mxPoint x="300" y="890" as="targetPoint" />
          </mxGeometry>
        </mxCell>
        <mxCell id="M8dPN3yoQwp40eLqV-Fw-162" value="follow" style="rhombus;whiteSpace=wrap;html=1;fontColor=#000000;fillColor=#ffffc0;strokeColor=#ff0000;" vertex="1" parent="M8dPN3yoQwp40eLqV-Fw-50">
          <mxGeometry x="260" y="770" width="80" height="40" as="geometry" />
        </mxCell>
        <mxCell id="M8dPN3yoQwp40eLqV-Fw-163" value="yes" style="edgeStyle=orthogonalEdgeStyle;html=1;align=left;verticalAlign=bottom;endArrow=open;endSize=8;strokeColor=#330000;rounded=1;entryX=0.75;entryY=1;entryDx=0;entryDy=0;endFill=0;" edge="1" source="M8dPN3yoQwp40eLqV-Fw-162" parent="M8dPN3yoQwp40eLqV-Fw-50" target="M8dPN3yoQwp40eLqV-Fw-160">
          <mxGeometry x="-1" relative="1" as="geometry">
            <mxPoint x="440" y="790" as="targetPoint" />
          </mxGeometry>
        </mxCell>
        <mxCell id="M8dPN3yoQwp40eLqV-Fw-170" value="" style="ellipse;html=1;shape=endState;fillColor=#000000;strokeColor=#ff0000;" vertex="1" parent="M8dPN3yoQwp40eLqV-Fw-50">
          <mxGeometry x="280" y="895" width="30" height="30" as="geometry" />
        </mxCell>
        <mxCell id="M8dPN3yoQwp40eLqV-Fw-56" style="edgeStyle=orthogonalEdgeStyle;orthogonalLoop=1;jettySize=auto;html=1;exitX=0.5;exitY=0;exitDx=0;exitDy=0;entryX=1;entryY=0.5;entryDx=0;entryDy=0;elbow=vertical;rounded=1;endArrow=open;endFill=0;" edge="1" parent="1" source="M8dPN3yoQwp40eLqV-Fw-55" target="M8dPN3yoQwp40eLqV-Fw-45">
          <mxGeometry relative="1" as="geometry" />
        </mxCell>
        <mxCell id="M8dPN3yoQwp40eLqV-Fw-139" value="yes" style="text;html=1;align=center;verticalAlign=middle;resizable=0;points=[];autosize=1;strokeColor=none;fillColor=none;" vertex="1" parent="1">
          <mxGeometry x="170" y="678" width="40" height="30" as="geometry" />
        </mxCell>
        <mxCell id="M8dPN3yoQwp40eLqV-Fw-169" value="no" style="text;html=1;align=center;verticalAlign=middle;resizable=0;points=[];autosize=1;strokeColor=none;fillColor=none;" vertex="1" parent="1">
          <mxGeometry x="300" y="828" width="40" height="30" as="geometry" />
        </mxCell>
      </root>
    </mxGraphModel>
  </diagram>
</mxfile>
